HIERARCHY
ROOT hip
{
  OFFSET 0 0 0
  CHANNELS 6 Xposition Yposition Zposition Zrotation Yrotation Xrotation
  JOINT abdomen
  {
    OFFSET 0 20.6881 -0.73152
    CHANNELS 3 Zrotation Xrotation Yrotation
    JOINT chest
    {
      OFFSET 0 11.7043 -0.48768
      CHANNELS 3 Zrotation Xrotation Yrotation
      JOINT neck
      {
        OFFSET 0 22.1894 -2.19456
        CHANNELS 3 Zrotation Xrotation Yrotation
        JOINT head
        {
          OFFSET -0.24384 7.07133 1.2192
          CHANNELS 3 Zrotation Xrotation Yrotation
          JOINT leftEye
          {
            OFFSET 4.14528 8.04674 8.04672
            CHANNELS 3 Zrotation Xrotation Yrotation
            End Site
            {
              OFFSET 1 0 0
            }
          }
          JOINT rightEye
          {
            OFFSET -3.6576 8.04674 8.04672
            CHANNELS 3 Zrotation Xrotation Yrotation
            End Site
            {
              OFFSET 1 0 0
            }
          }
        }
      }
      JOINT rCollar
      {
        OFFSET -2.68224 19.2634 -4.8768
        CHANNELS 3 Zrotation Xrotation Yrotation
        JOINT rShldr
        {
          OFFSET -8.77824 -1.95073 1.46304
          CHANNELS 3 Zrotation Xrotation Yrotation
          JOINT rForeArm
          {
            OFFSET -28.1742 -1.7115 0.48768
            CHANNELS 3 Zrotation Xrotation Yrotation
            JOINT rHand
            {
              OFFSET -22.5879 0.773209 7.07136
              CHANNELS 3 Zrotation Xrotation Yrotation
              JOINT rThumb1
              {
                OFFSET -1.2192 -0.487915 3.41376
                CHANNELS 3 Zrotation Xrotation Yrotation
                JOINT rThumb2
                {
                  OFFSET -3.37035 -0.52449 3.41376
                  CHANNELS 3 Zrotation Xrotation Yrotation
                  End Site
                  {
                    OFFSET -1.78271 -1.18214 1.43049
                  }
                }
              }
              JOINT rIndex1
              {
                OFFSET -7.75947 0.938293 5.60832
                CHANNELS 3 Zrotation Xrotation Yrotation
                JOINT rIndex2
                {
                  OFFSET -2.54057 -0.884171 1.56538
                  CHANNELS 3 Zrotation Xrotation Yrotation
                  End Site
                  {
                    OFFSET -1.62519 -0.234802 1.16502
                  }
                }
              }
              JOINT rMid1
              {
                OFFSET -8.24714 1.18213 3.41376
                CHANNELS 3 Zrotation Xrotation Yrotation
                JOINT rMid2
                {
                  OFFSET -3.10165 -0.590103 1.0647
                  CHANNELS 3 Zrotation Xrotation Yrotation
                  End Site
                  {
                    OFFSET -2.48547 -0.328903 0.83742
                  }
                }
              }
              JOINT rRing1
              {
                OFFSET -8.82822 0.546677 1.51678
                CHANNELS 3 Zrotation Xrotation Yrotation
                JOINT rRing2
                {
                  OFFSET -2.60934 -0.819778 -0.0198488
                  CHANNELS 3 Zrotation Xrotation Yrotation
                  End Site
                  {
                    OFFSET -2.33842 -0.294052 0.168128
                  }
                }
              }
              JOINT rPinky1
              {
                OFFSET -8.27202 -0.0477905 -0.4584
                CHANNELS 3 Zrotation Xrotation Yrotation
                JOINT rPinky2
                {
                  OFFSET -1.82734 -0.647385 -0.700984
                  CHANNELS 3 Zrotation Xrotation Yrotation
                  End Site
                  {
                    OFFSET -1.69225 -0.51767 -0.607171
                  }
                }
              }
            }
          }
        }
      }
      JOINT lCollar
      {
        OFFSET 2.68224 19.2634 -4.8768
        CHANNELS 3 Zrotation Xrotation Yrotation
        JOINT lShldr
        {
          OFFSET 8.77824 -1.95073 1.46304
          CHANNELS 3 Zrotation Xrotation Yrotation
          JOINT lForeArm
          {
            OFFSET 28.1742 -1.7115 0.48768
            CHANNELS 3 Zrotation Xrotation Yrotation
            JOINT lHand
            {
              OFFSET 22.5879 0.773209 7.07136
              CHANNELS 3 Zrotation Xrotation Yrotation
              JOINT lThumb1
              {
                OFFSET 1.2192 -0.487915 3.41376
                CHANNELS 3 Zrotation Xrotation Yrotation
                JOINT lThumb2
                {
                  OFFSET 3.37035 -0.52449 3.41376
                  CHANNELS 3 Zrotation Xrotation Yrotation
                  End Site
                  {
                    OFFSET 1.78271 -1.18214 1.43049
                  }
                }
              }
              JOINT lIndex1
              {
                OFFSET 7.75947 0.938293 5.60832
                CHANNELS 3 Zrotation Xrotation Yrotation
                JOINT lIndex2
                {
                  OFFSET 2.54057 -0.884171 1.56538
                  CHANNELS 3 Zrotation Xrotation Yrotation
                  End Site
                  {
                    OFFSET 1.62519 -0.234802 1.16502
                  }
                }
              }
              JOINT lMid1
              {
                OFFSET 8.24714 1.18213 3.41376
                CHANNELS 3 Zrotation Xrotation Yrotation
                JOINT lMid2
                {
                  OFFSET 3.10165 -0.590103 1.0647
                  CHANNELS 3 Zrotation Xrotation Yrotation
                  End Site
                  {
                    OFFSET 2.48547 -0.328903 0.83742
                  }
                }
              }
              JOINT lRing1
              {
                OFFSET 8.82822 0.546677 1.51678
                CHANNELS 3 Zrotation Xrotation Yrotation
                JOINT lRing2
                {
                  OFFSET 2.60934 -0.819778 -0.0198488
                  CHANNELS 3 Zrotation Xrotation Yrotation
                  End Site
                  {
                    OFFSET 2.33842 -0.294052 0.168128
                  }
                }
              }
              JOINT lPinky1
              {
                OFFSET 8.27202 -0.0477905 -0.4584
                CHANNELS 3 Zrotation Xrotation Yrotation
                JOINT lPinky2
                {
                  OFFSET 1.82734 -0.647385 -0.700984
                  CHANNELS 3 Zrotation Xrotation Yrotation
                  End Site
                  {
                    OFFSET 1.69225 -0.51767 -0.607171
                  }
                }
              }
            }
          }
        }
      }
    }
  }
  JOINT rButtock
  {
    OFFSET -8.77824 4.35084 1.2192
    CHANNELS 3 Zrotation Xrotation Yrotation
    JOINT rThigh
    {
      OFFSET 0 -1.70687 -2.19456
      CHANNELS 3 Zrotation Xrotation Yrotation
      JOINT rShin
      {
        OFFSET 0 -36.8199 0.73152
        CHANNELS 3 Zrotation Xrotation Yrotation
        JOINT rFoot
        {
          OFFSET 0.73152 -45.1104 -5.12064
          CHANNELS 3 Zrotation Xrotation Yrotation
          End Site
          {
            OFFSET -1.1221 -3.69964 12.103
          }
        }
      }
    }
  }
  JOINT lButtock
  {
    OFFSET 8.77824 4.35084 1.2192
    CHANNELS 3 Zrotation Xrotation Yrotation
    JOINT lThigh
    {
      OFFSET 0 -1.70687 -2.19456
      CHANNELS 3 Zrotation Xrotation Yrotation
      JOINT lShin
      {
        OFFSET 0 -36.8199 0.73152
        CHANNELS 3 Zrotation Xrotation Yrotation
        JOINT lFoot
        {
          OFFSET -0.73152 -45.1104 -5.12064
          CHANNELS 3 Zrotation Xrotation Yrotation
          End Site
          {
            OFFSET 1.1221 -3.69964 12.103
          }
        }
      }
    }
  }
}
MOTION
Frames:	4
Frame Time:	0.03333
0.04044296219944954 62.025463581085205 0.16426881775259972 -4.867733955383301 1.5236470699310303 5.370129108428955 -2.2616045475006104 14.572016716003418 3.6844475269317627 2.627504587173462 -9.53937816619873 1.1101609468460083 -5.160333156585693 15.040729522705078 -3.5800909996032715 8.710780143737793 -24.25975227355957 -5.236277103424072 -0.05456501245498657 0.046079445630311966 -0.04460153356194496 0.020458543673157692 -0.09543602913618088 0.017245503142476082 0.013494736514985561 0.030310750007629395 -0.00649997778236866 44.480934143066406 37.56916046142578 19.49551773071289 -27.697500228881836 -28.72331428527832 65.06710052490234 -0.23500487208366394 -12.639107704162598 -1.860392689704895 0.030426356941461563 0.03986331447958946 0.054600223898887634 0.07467818260192871 0.028547491878271103 0.010429172776639462 0.0010764444014057517 0.06725534796714783 -0.02857213467359543 7.7555975914001465 5.473384380340576 0.3844796121120453 0.1055174395442009 -0.012120717205107212 -0.006544340867549181 2.8527677059173584 0.9730924963951111 0.13926248252391815 -0.014952789060771465 -0.053631704300642014 -0.03464194014668465 10.311320304870605 0.7480201125144958 0.10256030410528183 -0.025883451104164124 -0.025737226009368896 -0.05190344527363777 2.1575608253479004 -0.7208384275436401 -0.2627287805080414 -0.03762272745370865 -0.002911222167313099 0.0010058158077299595 -51.81912612915039 39.73721694946289 -30.166669845581055 26.912090301513672 -26.278024673461914 -61.47386932373047 0.18420663475990295 -13.4512939453125 1.9364182949066162 0.032671667635440826 -0.01365858968347311 0.026567431166768074 -0.012040136381983757 0.016482461243867874 0.00497875502333045 -0.032922208309173584 0.019703004509210587 0.024470802396535873 -7.787360191345215 5.443066596984863 -0.38757196068763733 0.023873141035437584 0.04135379567742348 0.011386350728571415 -2.835453510284424 0.9736038446426392 -0.07086175680160522 -0.0392887182533741 0.05165936425328255 0.10773538053035736 -10.313443183898926 0.6750437021255493 -0.054923418909311295 0.02136942185461521 -0.012151511386036873 0.05231839418411255 -2.1690056324005127 -0.7474091649055481 0.16518358886241913 0.02739984542131424 0.05418895557522774 0.05364612117409706 -24.63324546813965 -39.86611557006836 -20.319913864135742 -1.2999846935272217 65.158203125 2.3796439170837402 -3.712143898010254 -10.984477043151855 -10.184832572937012 0.10868383944034576 -0.0020562626887112856 0.006943764630705118 30.17292594909668 -40.06711196899414 23.02912712097168 1.4269371032714844 65.94449615478516 -2.564079761505127 4.175849914550781 -10.817508697509766 13.454402923583984
0.14021126553416252 61.88288331031799 0.38215918466448784 -5.278843879699707 1.0475518703460693 5.291907787322998 -2.2072064876556396 14.402506828308105 3.683742046356201 2.6040778160095215 -9.428297996520996 1.1299386024475098 -5.112186431884766 15.13184642791748 -3.581617832183838 8.649301528930664 -24.196884155273438 -5.264318943023682 -0.04240163043141365 0.07727429270744324 -0.02570119872689247 -0.0054311603307724 -0.21355745196342468 -0.06141817197203636 -0.03322555124759674 0.058073606342077255 -0.031368959695100784 43.818599700927734 37.451759338378906 19.741039276123047 -27.592607498168945 -28.614503860473633 65.1563949584961 -0.1944887936115265 -12.903669357299805 -1.9085955619812012 0.0720210000872612 0.07019148021936417 0.08751516044139862 0.09032485634088516 0.01830650120973587 -0.03072204254567623 0.03755318000912666 0.07123105973005295 -0.08436963707208633 7.782632350921631 5.4924774169921875 0.43874067068099976 0.06736315041780472 -0.01880388893187046 0.11679773777723312 2.8907907009124756 0.9376034140586853 0.11772549152374268 -0.19222292304039001 -0.069312185049057 -0.06230001151561737 10.289285659790039 0.7225241661071777 0.15757717192173004 -0.0016625735443085432 -0.07625188678503036 -0.043976616114377975 2.0788533687591553 -0.6595499515533447 -0.28809860348701477 -0.062149494886398315 -0.05880523845553398 0.07358351349830627 -51.62137222290039 39.69755935668945 -30.578683853149414 27.032283782958984 -26.233341217041016 -61.34600830078125 0.24387609958648682 -13.419690132141113 1.757904291152954 0.03282761946320534 -0.0846509262919426 0.0793074294924736 0.025572584941983223 0.14853426814079285 0.04695640504360199 -0.044620055705308914 0.11528962850570679 0.0231552105396986 -7.786066055297852 5.482495307922363 -0.2946964204311371 0.02920660749077797 0.03865412622690201 0.0005984340677969158 -2.7515151500701904 0.9362462162971497 -0.060068901628255844 -0.08185838162899017 -0.0072990907356143 0.146687850356102 -10.306358337402344 0.7201986312866211 -0.004213916603475809 0.07851096242666245 -0.07501386106014252 0.03056400455534458 -2.1129190921783447 -0.6666665077209473 0.22967329621315002 0.01804072968661785 0.11167655885219574 0.12661369144916534 -24.43930435180664 -39.839813232421875 -19.923303604125977 -1.205232858657837 64.70160675048828 2.182096004486084 -3.675811767578125 -11.1327486038208 -10.417032241821289 0.13003793358802795 0.03241359069943428 0.01750645972788334 30.169626235961914 -40.233211517333984 22.818462371826172 1.5444178581237793 65.99317932128906 -2.777621030807495 4.0218586921691895 -10.828537940979004 13.277198791503906
0.3238311503082514 64.50254321098328 0.5711219273507595 -9.293678283691406 -8.303271293640137 -0.11322805285453796 -1.8542959690093994 11.156603813171387 -4.901619911193848 7.4205169677734375 -8.192156791687012 -0.31705453991889954 -6.379788875579834 15.837531089782715 -8.68569278717041 13.119369506835938 -23.8767032623291 -14.329785346984863 0.08798680454492569 0.33617931604385376 -0.5781353712081909 0.1075211688876152 -0.1216755211353302 0.45704036951065063 -0.0009773053461685777 -0.05578743293881416 -0.17599524557590485 75.7187271118164 46.87803649902344 -15.358638763427734 -28.507129669189453 -38.21999740600586 81.09542083740234 -8.235913276672363 -57.89642333984375 -14.210145950317383 0.11696004867553711 0.03197552636265755 0.29991820454597473 0.2955801784992218 -0.32790154218673706 0.016239117830991745 -0.010043846443295479 0.34274277091026306 0.026840370148420334 7.689932823181152 5.326660633087158 -0.09298411756753922 0.4027838110923767 0.5604342222213745 0.28482186794281006 3.1069135665893555 0.46211105585098267 -0.003769664792343974 -0.18728817999362946 -0.12697631120681763 -0.5365225672721863 10.131330490112305 1.20784592628479 0.3658680319786072 -0.09568498283624649 0.3248904049396515 0.2451242208480835 1.726813554763794 -0.9381589889526367 -0.04622815176844597 0.10450254380702972 -0.14855533838272095 -0.04775310680270195 -31.619205474853516 30.7412109375 -64.1093978881836 23.144289016723633 -15.723682403564453 -44.75525665283203 0.7522974014282227 23.105377197265625 -3.441070318222046 0.261697918176651 -0.15796321630477905 -0.6902545094490051 0.24145130813121796 -0.03648970648646355 0.06492973864078522 -0.24655809998512268 0.16738629341125488 0.4336235821247101 -7.82019567489624 5.455394744873047 -0.12607266008853912 0.12430572509765625 -0.16464152932167053 -0.1019435003399849 -2.567218542098999 1.0910416841506958 0.05489926040172577 0.06755458563566208 0.0475863516330719 0.5411030054092407 -10.31322193145752 0.6327207684516907 0.06774984300136566 -0.09004177153110504 0.34677013754844666 -0.08452031761407852 -2.1228158473968506 -0.7742594480514526 0.7966060042381287 0.14909623563289642 0.026675762608647346 0.07811247557401657 -14.456088066101074 -39.05771255493164 -9.033491134643555 -0.2570926547050476 61.78404235839844 1.5748248100280762 -3.3275911808013916 -9.81914234161377 -8.25980281829834 0.30758219957351685 0.49780118465423584 0.3062603771686554 15.86594295501709 -30.331892013549805 13.99992847442627 1.1727980375289917 54.16236877441406 -2.27712345123291 6.650611400604248 -12.793922424316406 19.4191837310791
0.16152630560100079 69.09767389297485 1.6429445706307888 -4.461885929107666 -12.246973037719727 -1.3189826011657715 0.3951199948787689 7.671319007873535 -9.676137924194336 10.381769180297852 -6.617761611938477 -2.3201847076416016 -9.678895950317383 18.219829559326172 -15.726078033447266 19.141094207763672 -23.668325424194336 -27.682567596435547 -0.4587419033050537 0.5238907933235168 -0.7735468149185181 -0.1380842626094818 -0.9175482392311096 0.5242663621902466 -0.22887612879276276 -0.2346537560224533 -0.077565997838974 85.00752258300781 47.692867279052734 -25.859573364257812 -26.549108505249023 -42.697811126708984 92.11563873291016 -19.432905197143555 -71.79856872558594 -26.948837280273438 1.0491385459899902 0.17211979627609253 -0.11141453683376312 -0.3876074552536011 -0.35026898980140686 0.510724663734436 0.0990714579820633 0.3706151247024536 -0.05983281508088112 7.352630615234375 6.384486675262451 0.567959189414978 0.7183049321174622 0.6431848406791687 -0.6356038451194763 3.3015856742858887 1.0690085887908936 0.03747887909412384 -0.2613082230091095 0.05743234232068062 -0.24083344638347626 10.344173431396484 1.4187825918197632 0.6121636033058167 -0.3265339732170105 -0.0008054876816459 0.040123771876096725 1.484989881515503 -1.375434398651123 0.6237684488296509 -0.3441322445869446 -0.10661634802818298 -0.36715421080589294 -3.495095729827881 40.81257629394531 -85.65884399414062 27.59625816345215 -22.663721084594727 -54.18287658691406 1.2014492750167847 16.765562057495117 -3.033170461654663 0.11201377213001251 0.09839313477277756 -0.4732387065887451 0.3911978304386139 0.12845532596111298 0.2083011418581009 -0.2854296863079071 -0.5631458759307861 0.19378075003623962 -7.134947776794434 5.633491516113281 -1.0881068706512451 -0.14210306107997894 -0.5643417239189148 0.7398965954780579 -2.6768016815185547 0.32489702105522156 -0.8494623899459839 0.028819413855671883 -0.4029448926448822 0.9291645884513855 -11.066603660583496 1.061251163482666 0.2514016330242157 0.11594851315021515 -0.157021164894104 -0.11358251422643661 -1.4427173137664795 -1.254178524017334 0.6711618304252625 0.14062590897083282 0.09391435235738754 -0.6327958106994629 -8.20521354675293 -37.98453903198242 0.8541832566261292 -0.4026414752006531 53.40283203125 0.5304099917411804 -2.732449769973755 -9.024131774902344 -5.9143805503845215 0.23888806998729706 0.615230143070221 0.502051830291748 11.369017601013184 -28.20518684387207 6.3499274253845215 1.3060247898101807 56.25532913208008 -1.9393616914749146 7.925350666046143 -17.145299911499023 17.82246971130371
